<?xml version="1.0" standalone="no"?>
<!DOCTYPE svg PUBLIC "-//W3C//DTD SVG 20010904//EN"
 "http://www.w3.org/TR/2001/REC-SVG-20010904/DTD/svg10.dtd">
<svg version="1.0" xmlns="http://www.w3.org/2000/svg"
 width="160.000000pt" height="160.000000pt" viewBox="0 0 160.000000 160.000000"
 preserveAspectRatio="xMidYMid meet">
<metadata>
Created by potrace 1.11, written by Peter Selinger 2001-2013
</metadata>
<g transform="translate(0.000000,160.000000) scale(0.100000,-0.100000)"
fill="#000000" stroke="none">
<path d="M892 1056 c-222 -129 -408 -238 -413 -243 -17 -17 9 -31 131 -72
l125 -41 45 -133 c31 -92 50 -133 62 -135 11 -2 38 25 79 80 34 46 64 85 65
87 2 2 47 -15 100 -38 64 -27 101 -38 107 -32 9 9 137 703 137 744 0 10 -7 17
-17 17 -10 0 -200 -105 -421 -234z m82 -97 l-222 -221 -103 34 -103 34 205
119 c112 65 256 149 319 186 63 37 117 68 120 68 3 1 -95 -99 -216 -220z m244
-89 c-28 -157 -52 -287 -54 -289 -4 -4 -225 87 -236 97 -4 4 70 114 164 245
93 131 171 237 173 235 2 -2 -19 -131 -47 -288z m-110 148 c-13 -18 -75 -104
-136 -190 -98 -138 -114 -165 -125 -219 l-13 -63 -27 79 -27 80 172 172 c95
95 174 173 177 173 2 0 -8 -15 -21 -32z m-184 -384 c23 -9 19 -24 -15 -64
l-30 -35 7 45 c9 62 11 65 38 54z"/>
<path d="M267 423 c-4 -3 -7 -10 -7 -14 0 -11 65 -49 84 -49 27 0 18 27 -18
49 -35 22 -48 25 -59 14z"/>
<path d="M649 391 c-20 -16 -22 -22 -11 -33 10 -10 18 -10 40 3 15 8 27 21 27
29 0 23 -29 23 -56 1z"/>
<path d="M424 349 c-9 -15 6 -26 47 -32 42 -6 65 9 48 30 -14 16 -85 17 -95 2z"/>
</g>
</svg>
